<svg width="512" height="512" viewBox="0 0 512 512" fill="none" xmlns="http://www.w3.org/2000/svg" role="img" aria-labelledby="title desc">
  <title id="title">InooBiz Icon</title>
  <desc id="desc">Editable vector icon for InooBiz, an independent SaaS and digital product studio.</desc>

  <defs>
    <linearGradient id="inoobizIconGradient" x1="78" y1="70" x2="420" y2="432" gradientUnits="userSpaceOnUse">
      <stop offset="0" stop-color="#38BDF8"/>
      <stop offset="0.52" stop-color="#2563EB"/>
      <stop offset="1" stop-color="#0F172A"/>
    </linearGradient>

    <linearGradient id="inoobizAccentGradient" x1="151" y1="115" x2="350" y2="365" gradientUnits="userSpaceOnUse">
      <stop offset="0" stop-color="#E0F2FE"/>
      <stop offset="1" stop-color="#7DD3FC"/>
    </linearGradient>

    <filter id="softShadow" x="36" y="34" width="440" height="448" filterUnits="userSpaceOnUse" color-interpolation-filters="sRGB">
      <feDropShadow dx="0" dy="28" stdDeviation="28" flood-color="#1E40AF" flood-opacity="0.18"/>
    </filter>
  </defs>

  <g filter="url(#softShadow)">
    <rect x="64" y="56" width="384" height="384" rx="96" fill="url(#inoobizIconGradient)"/>

    <path d="M164 295C164 244.19 205.19 203 256 203H335V256H261C239.461 256 222 273.461 222 295C222 316.539 239.461 334 261 334H335V387H256C205.19 387 164 345.81 164 295Z" fill="white" fill-opacity="0.96"/>
    <path d="M335 139C362.614 139 385 161.386 385 189C385 216.614 362.614 239 335 239H291V186H330C339.941 186 348 177.941 348 168C348 158.059 339.941 150 330 150H291V139H335Z" fill="url(#inoobizAccentGradient)" fill-opacity="0.98"/>
    <path d="M291 150H221C185.101 150 156 179.101 156 215V219H209V215C209 208.373 214.373 203 221 203H291V150Z" fill="white" fill-opacity="0.92"/>

    <rect x="126" y="119" width="32" height="32" rx="9" fill="#E0F2FE"/>
    <rect x="364" y="338" width="32" height="32" rx="9" fill="#BAE6FD"/>
    <circle cx="374" cy="123" r="14" fill="#F8FAFC"/>
  </g>
</svg>
